<?xml version="1.0" encoding="UTF-8"?>
<svg width="158px" height="40px" viewBox="0 0 158 40" version="1.1" xmlns="http://www.w3.org/2000/svg" xmlns:xlink="http://www.w3.org/1999/xlink">
    <!-- Generator: Sketch 51.3 (57544) - http://www.bohemiancoding.com/sketch -->
    <title>[001]logo/01.white</title>
    <desc>Created with Sketch.</desc>
    <defs></defs>
    <g id="[001]logo/01.white" stroke="none" stroke-width="1" fill="none" fill-rule="evenodd">
        <g id="Group-16">
            <g id="Group-3" transform="translate(0.000000, 0.414200)">
                <polygon id="Clip-2" points="0 0.586 42.8604 0.586 42.8604 38.9999 0 38.9999"></polygon>
                <path d="M21.5184,33.6009 L15.8704,33.6009 L7.1304,6.6109 L12.5134,6.6109 L16.1984,18.8839 C17.2324,22.2879 18.1374,25.4449 18.8344,28.7049 L18.9224,28.7049 C19.6354,25.5249 20.6134,22.2329 21.6624,18.9549 L25.6044,6.6109 L30.8514,6.6109 L21.5184,33.6009 Z M-0.0006,0.5859 L-0.0006,38.9999 L42.8604,38.9999 L42.8604,33.6009 L37.9174,33.6009 L37.9174,6.6109 L42.8604,6.6109 L42.8604,0.5859 L-0.0006,0.5859 Z" id="Fill-1" fill="#FFFFFF"></path>
            </g>
            <path d="M62.6058,28.6362 C64.1948,29.5512 66.6148,30.3552 69.1268,30.3552 C72.2728,30.3552 74.0328,28.8762 74.0328,26.6702 C74.0328,24.6332 72.6658,23.4332 69.2508,22.1942 C64.7938,20.6132 61.9458,18.2212 61.9458,14.3542 C61.9458,9.9342 65.6418,6.6072 71.4958,6.6072 C74.4208,6.6072 76.5598,7.2292 77.9638,7.9412 L76.7848,11.9172 C75.8098,11.4072 73.9288,10.6362 71.3948,10.6362 C68.2658,10.6362 66.9378,12.3012 66.9378,13.8872 C66.9378,15.9572 68.4988,16.9302 72.0998,18.3052 C76.7868,20.0952 79.0408,22.4482 79.0408,26.3252 C79.0408,30.6662 75.7718,34.4312 68.8088,34.4312 C65.9528,34.4312 62.9898,33.6192 61.5148,32.7162 L62.6058,28.6362 Z" id="Fill-4" fill="#FFFFFF"></path>
            <polygon id="Fill-6" fill="#FFFFFF" points="92.8182 11.1694 85.1142 11.1694 85.1142 7.0274 105.5282 7.0274 105.5282 11.1694 97.7502 11.1694 97.7502 34.0104 92.8182 34.0104"></polygon>
            <path d="M123.0492,22.6576 L120.9232,16.0096 C120.4042,14.3376 119.9592,12.5026 119.5512,10.9366 L119.4622,10.9366 C119.0702,12.5186 118.6572,14.3876 118.1802,15.9926 L116.0962,22.6576 L123.0492,22.6576 Z M115.2912,26.3836 L112.9892,34.0106 L107.8932,34.0106 L116.5522,7.0276 L122.8302,7.0276 L131.5972,34.0106 L126.3042,34.0106 L123.8622,26.3836 L115.2912,26.3836 Z" id="Fill-8" fill="#FFFFFF"></path>
            <path d="M144.4159,19.9506 C145.0439,20.1156 145.8259,20.1756 146.8299,20.1756 C150.5149,20.1756 152.7629,18.3416 152.7629,15.1786 C152.7629,12.2046 150.6819,10.6056 147.2699,10.6056 C145.9149,10.6056 144.9369,10.7246 144.4159,10.8406 L144.4159,19.9506 Z M139.5239,7.3716 C141.3129,7.0646 143.7579,6.8176 147.0709,6.8176 C150.6699,6.8176 153.2979,7.5746 155.0169,9.0256 C156.6259,10.3436 157.6579,12.4626 157.6579,14.9986 C157.6579,17.5546 156.8589,19.6616 155.3579,21.1106 C153.3759,23.0756 150.3249,24.0146 146.8289,24.0146 C145.9079,24.0146 145.0799,23.9686 144.4159,23.8256 L144.4159,34.0106 L139.5239,34.0106 L139.5239,7.3716 Z" id="Fill-10" fill="#FFFFFF"></path>
            <polygon id="Clip-13" points="0 39.4142 157.658 39.4142 157.658 1.0002 0 1.0002"></polygon>
            <polygon id="Fill-12" fill="#FFFFFF" points="42.86 22.0402 53.02 22.0402 53.02 18.0192 42.86 18.0192"></polygon>
            <polygon id="Fill-14" fill="#FFFFFF" points="42.861 34.0102 54.222 34.0102 54.222 29.9552 42.861 29.9552"></polygon>
            <polygon id="Fill-15" fill="#FFFFFF" points="42.86 11.0832 53.627 11.0832 53.627 7.0282 42.86 7.0282"></polygon>
        </g>
    </g>
</svg>